<mxfile host="app.diagrams.net" modified="2023-08-25T11:20:32.245Z" agent="Mozilla/5.0 (Macintosh; Intel Mac OS X 10_15_7) AppleWebKit/537.36 (KHTML, like Gecko) Chrome/114.0.0.0 Safari/537.36" version="21.6.5" etag="HxBR-hxAKlD-E3V5rBL7" type="github">
  <diagram name="第 1 页" id="wGria_mO5ZB0Emoq7oFx">
    <mxGraphModel>
      <root>
        <mxCell id="0" />
        <mxCell id="1" parent="0" />
      </root>
    </mxGraphModel>
  </diagram>
</mxfile>
